<?xml version="1.0" encoding="UTF-8" standalone="no"?><!DOCTYPE svg PUBLIC "-//W3C//DTD SVG 1.1//EN" "http://www.w3.org/Graphics/SVG/1.1/DTD/svg11.dtd"><svg width="100%" height="100%" viewBox="0 0 15 15" version="1.1" xmlns="http://www.w3.org/2000/svg" xmlns:xlink="http://www.w3.org/1999/xlink" xml:space="preserve" xmlns:serif="http://www.serif.com/" style="fill-rule:evenodd;clip-rule:evenodd;stroke-linejoin:round;stroke-miterlimit:1.5;"><g id="Layer2"><path d="M7.986,2.507l-7.138,0c-0.192,0 -0.348,0.156 -0.348,0.348l0,10.316c0,0.192 0.156,0.348 0.348,0.348l10.294,0c0.192,0 0.348,-0.156 0.348,-0.348l0,-6.541" style="fill:none;stroke:#329bf9;stroke-width:1px;"/><path d="M4.008,9.991l0.229,-0.96l0.756,-2.008l5.009,-5.006l0.497,-0.471l1.471,0.5l0.488,1.536l-0.456,0.436l-5.015,4.99l-2.004,0.776l-0.975,0.207Z" style="fill:#329bf9;"/><path d="M11.998,0.023l-0.866,0.889l1.406,0.545l0.544,1.434l0.916,-0.868c0,0 0.056,-0.718 0,-1c-0.05,-0.25 -0.168,-0.521 -0.335,-0.688c-0.167,-0.167 -0.424,-0.267 -0.665,-0.312c-0.278,-0.052 -1,0 -1,0Z" style="fill:#329bf9;"/></g></svg>