<?xml version="1.0" encoding="UTF-8" standalone="no"?><!DOCTYPE svg PUBLIC "-//W3C//DTD SVG 1.1//EN" "http://www.w3.org/Graphics/SVG/1.1/DTD/svg11.dtd"><svg width="100%" height="100%" viewBox="0 0 14 16" version="1.1" xmlns="http://www.w3.org/2000/svg" xmlns:xlink="http://www.w3.org/1999/xlink" xml:space="preserve" xmlns:serif="http://www.serif.com/" style="fill-rule:evenodd;clip-rule:evenodd;stroke-linejoin:round;stroke-miterlimit:1.5;"><g><path d="M1.992,2.485l0.118,10.537c0,0 0.241,0.67 0.48,0.92c0.24,0.25 0.958,0.583 0.958,0.583l7.034,-0.029c0,0 0.584,-0.346 0.787,-0.605c0.202,-0.259 0.428,-0.949 0.428,-0.949l0.177,-10.457" style="fill:none;stroke:#fff;stroke-width:1px;"/><g id="Layer1"><path d="M0.5,2.485l12.955,0" style="fill:none;stroke:#fff;stroke-width:1px;"/></g><path d="M4.97,5.013l0,6.984" style="fill:none;stroke:#fff;stroke-width:1px;"/><path d="M8.974,5.013l0,6.984" style="fill:none;stroke:#fff;stroke-width:1px;"/><path d="M6.981,5.013l0,6.984" style="fill:none;stroke:#fff;stroke-width:1px;"/><path d="M3.978,2.485l0,-1.484c0,0 0.143,-0.224 0.227,-0.307c0.079,-0.08 0.274,-0.194 0.274,-0.194l4.999,0c0,0 0.195,0.115 0.275,0.194c0.083,0.08 0.222,0.29 0.222,0.29l0,1.501" style="fill:none;stroke:#fff;stroke-width:1px;"/></g></svg>